<svg xmlns="http://www.w3.org/2000/svg" viewBox="0 0 1280 720" preserveAspectRatio="xMidYMid slice">
  <defs>
    <linearGradient id="bg" x1="0" y1="0" x2="1" y2="1"><stop offset="0" stop-color="#1c130a"/><stop offset="1" stop-color="#0e0905"/></linearGradient>
    <linearGradient id="gold" x1="0" y1="0" x2="1" y2="1"><stop offset="0" stop-color="#c9975e"/><stop offset="1" stop-color="#e6ba83"/></linearGradient>
    <pattern id="dots" width="30" height="30" patternUnits="userSpaceOnUse"><circle cx="1.5" cy="1.5" r="1.5" fill="#c9975e" opacity="0.04"/></pattern>
  </defs>
  <rect width="1280" height="720" fill="url(#bg)"/><rect width="1280" height="720" fill="url(#dots)"/>

  <rect x="48" y="44" width="1184" height="632" rx="30" fill="#c9975e" opacity="0.06"/>
  <rect x="48" y="44" width="1184" height="632" rx="30" fill="none" stroke="#c9975e" stroke-opacity="0.28" stroke-width="2"/>
  <line x1="924" y1="80" x2="924" y2="640" stroke="#c9975e" stroke-opacity="0.3" stroke-width="2" stroke-dasharray="4 13"/>
  <circle cx="924" cy="44" r="22" fill="#140d07"/><circle cx="924" cy="676" r="22" fill="#140d07"/>

  <text x="96" y="150" font-family="system-ui,Segoe UI,sans-serif" font-size="20" letter-spacing="7" fill="#d4a574">ТОВАРКА З КИТАЮ</text>
  <text x="92" y="312" font-family="Georgia,'Cormorant Garamond',serif" font-size="68" fill="#f5f0e8">Від новачка</text>
  <text x="92" y="398" font-family="Georgia,'Cormorant Garamond',serif" font-size="68" fill="url(#gold)">до перших результатів</text>
  <rect x="96" y="432" width="130" height="3" rx="1.5" fill="url(#gold)"/>

  <!-- THEME: 5-step ascending route to a flag -->
  <path d="M132 600 L292 566 L452 552 L612 510 L772 456" fill="none" stroke="url(#gold)" stroke-width="3" stroke-dasharray="2 13"/>
  <g fill="#0e0905" stroke="url(#gold)" stroke-width="3">
    <circle cx="132" cy="600" r="12"/><circle cx="292" cy="566" r="10"/><circle cx="452" cy="552" r="10"/><circle cx="612" cy="510" r="10"/>
  </g>
  <circle cx="772" cy="456" r="18" fill="url(#gold)"/>
  <path d="M772 456 V410" stroke="url(#gold)" stroke-width="3"/><path d="M772 412 L806 423 L772 434 Z" fill="url(#gold)"/>
  <circle cx="772" cy="456" r="28" fill="none" stroke="#c9975e" stroke-opacity="0.22" stroke-width="2"/>
  <g font-family="system-ui,Segoe UI,sans-serif" font-size="15" fill="#d4a574" text-anchor="middle">
    <text x="132" y="636">КРОК 1</text><text x="292" y="602">2</text><text x="452" y="588">3</text><text x="612" y="546">4</text><text x="772" y="512">ФІНІШ</text>
  </g>

  <text x="1078" y="156" font-family="system-ui,Segoe UI,sans-serif" font-size="16" letter-spacing="5" fill="#d4a574" text-anchor="middle">ДЕНЬ</text>
  <text x="1078" y="404" font-family="Georgia,'Cormorant Garamond',serif" font-size="160" font-weight="700" fill="url(#gold)" text-anchor="middle">01</text>
  <g stroke="#c9975e" stroke-opacity="0.3" stroke-width="3"><path d="M1016 470 h124 M1016 486 h124 M1016 502 h124 M1016 518 h124"/></g>
</svg>
