<svg xmlns="http://www.w3.org/2000/svg" viewBox="0 0 1280 720" preserveAspectRatio="xMidYMid slice">
  <defs>
    <linearGradient id="bg" x1="0" y1="0" x2="1" y2="1"><stop offset="0" stop-color="#1c130a"/><stop offset="1" stop-color="#0e0905"/></linearGradient>
    <linearGradient id="gold" x1="0" y1="0" x2="1" y2="1"><stop offset="0" stop-color="#c9975e"/><stop offset="1" stop-color="#e6ba83"/></linearGradient>
    <pattern id="dots" width="30" height="30" patternUnits="userSpaceOnUse"><circle cx="1.5" cy="1.5" r="1.5" fill="#c9975e" opacity="0.04"/></pattern>
  </defs>
  <rect width="1280" height="720" fill="url(#bg)"/><rect width="1280" height="720" fill="url(#dots)"/>

  <rect x="48" y="44" width="1184" height="632" rx="30" fill="#c9975e" opacity="0.06"/>
  <rect x="48" y="44" width="1184" height="632" rx="30" fill="none" stroke="#c9975e" stroke-opacity="0.28" stroke-width="2"/>
  <line x1="924" y1="80" x2="924" y2="640" stroke="#c9975e" stroke-opacity="0.3" stroke-width="2" stroke-dasharray="4 13"/>
  <circle cx="924" cy="44" r="22" fill="#140d07"/><circle cx="924" cy="676" r="22" fill="#140d07"/>

  <text x="96" y="150" font-family="system-ui,Segoe UI,sans-serif" font-size="20" letter-spacing="7" fill="#d4a574">ТОВАРКА З КИТАЮ</text>
  <text x="92" y="312" font-family="Georgia,'Cormorant Garamond',serif" font-size="68" fill="#f5f0e8">Твій перший</text>
  <text x="92" y="398" font-family="Georgia,'Cormorant Garamond',serif" font-size="68" fill="url(#gold)">односторінковий сайт</text>
  <rect x="96" y="432" width="130" height="3" rx="1.5" fill="url(#gold)"/>

  <!-- THEME: landing wireframe -> published URL -->
  <rect x="110" y="478" width="404" height="158" rx="14" fill="#c9975e" opacity="0.06" stroke="#c9975e" stroke-opacity="0.45" stroke-width="2"/>
  <line x1="110" y1="510" x2="514" y2="510" stroke="#c9975e" stroke-opacity="0.3" stroke-width="1.5"/>
  <circle cx="130" cy="494" r="4.5" fill="#c9975e" opacity="0.6"/><circle cx="146" cy="494" r="4.5" fill="#c9975e" opacity="0.45"/><circle cx="162" cy="494" r="4.5" fill="#c9975e" opacity="0.3"/>
  <rect x="132" y="532" width="160" height="14" rx="7" fill="url(#gold)"/>
  <rect x="132" y="556" width="240" height="8" rx="4" fill="#f5f0e8" opacity="0.35"/>
  <rect x="132" y="574" width="200" height="8" rx="4" fill="#f5f0e8" opacity="0.28"/>
  <rect x="132" y="598" width="130" height="34" rx="17" fill="url(#gold)"/>
  <rect x="396" y="532" width="100" height="100" rx="10" fill="#c9975e" opacity="0.18"/>

  <path d="M528 556 H588" fill="none" stroke="url(#gold)" stroke-width="3" stroke-dasharray="2 10"/>
  <path d="M586 547 L612 556 L586 565 Z" fill="url(#gold)"/>
  <rect x="624" y="534" width="266" height="46" rx="23" fill="#c9975e" opacity="0.06" stroke="#c9975e" stroke-opacity="0.4" stroke-width="2"/>
  <g stroke="url(#gold)" stroke-width="2.5" fill="none"><rect x="646" y="548" width="16" height="13" rx="3"/><path d="M650 548 v-4 a4 4 0 0 1 8 0 v4"/></g>
  <rect x="676" y="552" width="190" height="8" rx="4" fill="#f5f0e8" opacity="0.4"/>
  <text x="757" y="616" font-family="system-ui,Segoe UI,sans-serif" font-size="15" letter-spacing="2" fill="#d4a574" text-anchor="middle">САЙТ ОНЛАЙН</text>

  <text x="1078" y="156" font-family="system-ui,Segoe UI,sans-serif" font-size="16" letter-spacing="5" fill="#d4a574" text-anchor="middle">ДЕНЬ</text>
  <text x="1078" y="404" font-family="Georgia,'Cormorant Garamond',serif" font-size="160" font-weight="700" fill="url(#gold)" text-anchor="middle">04</text>
  <g stroke="#c9975e" stroke-opacity="0.3" stroke-width="3"><path d="M1016 470 h124 M1016 486 h124 M1016 502 h124 M1016 518 h124"/></g>
</svg>
