<svg xmlns="http://www.w3.org/2000/svg" viewBox="0 0 1280 720" preserveAspectRatio="xMidYMid slice">
  <defs>
    <linearGradient id="bg" x1="0" y1="0" x2="1" y2="1"><stop offset="0" stop-color="#1c130a"/><stop offset="1" stop-color="#0e0905"/></linearGradient>
    <linearGradient id="gold" x1="0" y1="0" x2="1" y2="1"><stop offset="0" stop-color="#c9975e"/><stop offset="1" stop-color="#e6ba83"/></linearGradient>
    <pattern id="dots" width="30" height="30" patternUnits="userSpaceOnUse"><circle cx="1.5" cy="1.5" r="1.5" fill="#c9975e" opacity="0.04"/></pattern>
  </defs>
  <rect width="1280" height="720" fill="url(#bg)"/><rect width="1280" height="720" fill="url(#dots)"/>

  <rect x="48" y="44" width="1184" height="632" rx="30" fill="#c9975e" opacity="0.06"/>
  <rect x="48" y="44" width="1184" height="632" rx="30" fill="none" stroke="#c9975e" stroke-opacity="0.28" stroke-width="2"/>
  <line x1="924" y1="80" x2="924" y2="640" stroke="#c9975e" stroke-opacity="0.3" stroke-width="2" stroke-dasharray="4 13"/>
  <circle cx="924" cy="44" r="22" fill="#140d07"/><circle cx="924" cy="676" r="22" fill="#140d07"/>

  <text x="96" y="150" font-family="system-ui,Segoe UI,sans-serif" font-size="20" letter-spacing="7" fill="#d4a574">ТОВАРКА З КИТАЮ</text>
  <text x="92" y="312" font-family="Georgia,'Cormorant Garamond',serif" font-size="68" fill="#f5f0e8">Розбір ДЗ та</text>
  <text x="92" y="398" font-family="Georgia,'Cormorant Garamond',serif" font-size="68" fill="url(#gold)">особисті консультації</text>
  <rect x="96" y="432" width="130" height="3" rx="1.5" fill="url(#gold)"/>

  <!-- THEME: expert <-> student chat with approved answer -->
  <circle cx="158" cy="540" r="42" fill="#c9975e" opacity="0.12"/>
  <circle cx="158" cy="540" r="42" fill="none" stroke="url(#gold)" stroke-width="2.5"/>
  <circle cx="158" cy="528" r="14" fill="url(#gold)"/>
  <path d="M134 568 q24 -28 48 0 z" fill="url(#gold)"/>
  <circle cx="190" cy="568" r="8" fill="#1c130a"/><circle cx="190" cy="568" r="5" fill="#d4a574"/>

  <!-- expert bubble -->
  <path d="M236 486 h330 a20 20 0 0 1 20 20 v52 a20 20 0 0 1 -20 20 h-300 l-30 26 v-26 h0 a20 20 0 0 1 -20 -20 v-52 a20 20 0 0 1 20 -20 z" fill="url(#gold)"/>
  <rect x="262" y="512" width="266" height="10" rx="5" fill="#0e0905" opacity="0.55"/>
  <rect x="262" y="534" width="220" height="10" rx="5" fill="#0e0905" opacity="0.4"/>

  <!-- student bubble -->
  <path d="M520 576 h250 a18 18 0 0 1 18 18 v34 a18 18 0 0 1 -18 18 h-226 l-26 22 v-22 a18 18 0 0 1 -18 -18 v-34 a18 18 0 0 1 18 -18 z" fill="#c9975e" fill-opacity="0.08" stroke="#c9975e" stroke-opacity="0.45" stroke-width="2"/>
  <rect x="544" y="600" width="200" height="9" rx="4.5" fill="#f5f0e8" opacity="0.4"/>
  <rect x="544" y="618" width="150" height="9" rx="4.5" fill="#f5f0e8" opacity="0.3"/>

  <!-- approved check -->
  <circle cx="610" cy="556" r="28" fill="#0e0905" stroke="url(#gold)" stroke-width="3"/>
  <path d="M597 556 l9 10 18 -20" fill="none" stroke="url(#gold)" stroke-width="4" stroke-linecap="round" stroke-linejoin="round"/>

  <text x="1078" y="156" font-family="system-ui,Segoe UI,sans-serif" font-size="16" letter-spacing="5" fill="#d4a574" text-anchor="middle">ДЕНЬ</text>
  <text x="1078" y="404" font-family="Georgia,'Cormorant Garamond',serif" font-size="160" font-weight="700" fill="url(#gold)" text-anchor="middle">05</text>
  <g stroke="#c9975e" stroke-opacity="0.3" stroke-width="3"><path d="M1016 470 h124 M1016 486 h124 M1016 502 h124 M1016 518 h124"/></g>
</svg>
